<svg width="80" height="80" viewBox="0 0 80 80" fill="none" xmlns="http://www.w3.org/2000/svg">
<g opacity="0.809046">
<path d="M10 46.6667H20C21.7681 46.6667 23.4638 47.369 24.714 48.6193C25.9643 49.8695 26.6667 51.5652 26.6667 53.3333V63.3333C26.6667 65.1014 25.9643 66.7971 24.714 68.0474C23.4638 69.2976 21.7681 70 20 70H16.6667C14.8986 70 13.2029 69.2976 11.9526 68.0474C10.7024 66.7971 10 65.1014 10 63.3333V40C10 32.0435 13.1607 24.4129 18.7868 18.7868C24.4129 13.1607 32.0435 10 40 10C47.9565 10 55.5871 13.1607 61.2132 18.7868C66.8393 24.4129 70 32.0435 70 40V63.3333C70 65.1014 69.2976 66.7971 68.0474 68.0474C66.7971 69.2976 65.1014 70 63.3333 70H60C58.2319 70 56.5362 69.2976 55.286 68.0474C54.0357 66.7971 53.3333 65.1014 53.3333 63.3333V53.3333C53.3333 51.5652 54.0357 49.8695 55.286 48.6193C56.5362 47.369 58.2319 46.6667 60 46.6667H70" stroke="#8E9196" stroke-width="2.09548" stroke-linecap="round" stroke-linejoin="round"/>
</g>
</svg>
